<svg enable-background="new 0 0 1566.2 486" viewBox="0 0 1566.2 486" xmlns="http://www.w3.org/2000/svg"><g fill="#ef4625"><path d="m509.6 272.8c-9.1-7.8-22.6-14.4-40.6-19.8-11.7-4.2-19.6-7.7-23.8-10.5s-6.4-6.5-6.4-11.1c0-4.8 2.1-8.8 6.3-12.1s10-4.9 17.4-4.9c7.5 0 13.4 2 17.7 5.9s6.4 9.1 6.4 15.4h35.6l.2-.7c.4-14.2-5.1-25.8-16.2-34.8-11.2-9-25.6-13.5-43.1-13.5-17.7 0-32.3 4.1-43.7 12.3-11.5 8.2-17.2 18.9-17.2 32.2 0 13.6 4.8 24 14.5 31.2 9.6 7.2 24.4 14 44.4 20.3 9.6 3.4 16.2 6.6 19.9 9.7 3.7 3 5.5 7.4 5.5 12.9 0 4.9-1.9 8.9-5.6 12-3.7 3-9.4 4.6-17 4.6-10 0-17.5-2-22.4-5.9s-7.4-10.4-7.4-19.6h-35.7l-.2.7c-.4 16.9 6 29.9 19.1 39 13.1 9 28.6 13.5 46.6 13.5 17.9 0 32.3-3.9 43.1-11.8s16.2-18.7 16.2-32.6c.1-13.8-4.5-24.6-13.6-32.4z"/><path d="m679.4 227.5c-7.6 0-14.3 1.7-19.9 5.1-5.7 3.4-10.3 8.1-14 14.3-2.7-6.5-6.7-11.4-12-14.6s-11.6-4.8-18.9-4.8c-7.2 0-13.7 1.5-19.3 4.6s-10.3 7.4-14 13.1l-1.3-15.5h-34.6v117.6h36.7v-84.3c1.9-2.2 4.2-4 6.9-5.3s5.7-1.9 9.1-1.9c4.9 0 8.4 1.4 10.8 4.2 2.3 2.8 3.5 8 3.5 15.6v71.6h36.7v-78.4c0-.9 0-1.8-.1-2.7s-.1-2-.1-3.2c1.9-2.2 4.2-4 6.9-5.3s5.8-1.9 9.4-1.9c4.7 0 8.2 1.4 10.6 4.2s3.5 8 3.5 15.6v71.6h36.8v-71.6c0-16.4-3.3-28.5-9.8-36.3s-15.5-11.7-26.9-11.7z"/><path d="m839.2 313.8v-44.3c0-13.5-4.5-23.8-13.5-31.1-9-7.2-20.8-10.9-35.3-10.9-15.5 0-28 3.6-37.4 10.8s-13.9 16.2-13.4 26.9l.2.7 35.5.1c0-4.2 1-7.3 3.1-9.3s5.2-3 9.4-3c4.9 0 8.6 1.3 10.9 4 2.4 2.7 3.5 6.5 3.5 11.5v8.4h-13.2c-17.8 0-31.1 3.2-39.8 9.5s-13.1 15.3-13.1 27c0 10.7 3.5 19.3 10.5 25.8 7 6.4 16.1 9.7 27.2 9.7 7 0 13-1.4 17.9-4.3s9.1-6.7 12.6-11.6c.6 2.5 1.3 4.9 2.1 7.2s1.8 4.4 2.8 6.3l36.3.1c-2.1-5.3-3.7-10.6-4.7-16-1.1-5.4-1.6-11.2-1.6-17.5zm-36.8 1.7c-1.9 2.3-4.3 4.2-7.4 5.7s-6.4 2.2-10 2.2-6.6-1-8.9-3.1-3.4-4.8-3.4-8.1c0-4.3 1.3-7.9 4-10.8 2.6-2.8 6.9-4.2 12.7-4.2h13z"/><path d="m924 227.5c-5.4 0-10.2 1.7-14.2 5.1-4.1 3.4-7.3 8.2-9.8 14.3l-1.3-17.3h-34.6v117.6h36.7v-77.1c1.3-2.6 3.3-4.6 6-6s6.1-2.1 10.3-2.1l13.4.1 3.6-33.2c-1.4-.4-3-.7-4.8-.9-1.8-.4-3.6-.5-5.3-.5z"/><path d="m1011.8 320.6c-1.3.1-3.2.2-5.5.2-2.9 0-5.2-.9-6.9-2.8-1.7-1.8-2.6-4.9-2.6-9.1v-53.9h19.9v-25.4h-19.9v-29.2h-36.6v29.2h-16.5v25.4h16.5v54.1c0 14 3.1 24.2 9.3 30.6s15.4 9.7 27.5 9.7c4.4 0 8.3-.2 11.5-.6 3.3-.4 6.9-1.1 11-2l-2.6-27.2c-2 .6-3.8.9-5.1 1z"/><path d="m1083.9 218c7.1-9.6 16.6-14.4 28.6-14.4 11.9 0 21.1 3.2 27.6 9.7 6.5 6.4 9.8 15.2 9.8 26.3h20.5l.2-.7c.3-15.7-4.9-28.3-15.4-37.9-10.6-9.5-24.8-14.3-42.7-14.3s-32.5 6.4-43.7 19.1c-11.3 12.7-16.9 28.8-16.9 48.3v28.1c0 19.5 5.6 35.6 16.9 48.2 11.3 12.7 25.8 19 43.7 19 17.6 0 31.8-5 42.5-15s15.9-22.5 15.6-37.3l-.2-.7h-20.5c0 11.3-3.3 20.2-9.8 26.6s-15.7 9.6-27.6 9.6c-12 0-21.5-4.8-28.6-14.4s-10.6-21.6-10.6-36v-28.3c-.1-14.3 3.5-26.3 10.6-35.9z"/><path d="m1197.2 177.7h21.4v169.5h-21.4z"/><path d="m1253.3 229.7h21.4v117.6h-21.4z"/><path d="m1253.3 177.7h21.4v21.8h-21.4z"/><path d="m1389.2 239.7c-8.7-8.1-20-12.2-33.7-12.2-17 0-30.1 5.6-39.2 16.8s-13.6 25.2-13.6 41.9v4.6c0 16.9 4.5 30.9 13.6 42 9.1 11.2 22.1 16.7 39.2 16.7 12.5 0 23.4-3.9 32.8-11.8s13.9-16.9 13.5-27.1l-.2-.7h-19.2c0 6.4-2.7 11.8-8.1 16.1-5.4 4.4-11.6 6.6-18.7 6.6-11.3 0-19.3-4-24.1-12s-7.2-18-7.2-30v-4.6c0-11.7 2.4-21.6 7.2-29.7s12.8-12.1 24.1-12.1c7.8 0 14.2 2.5 19.2 7.6 5.1 5 7.6 11.1 7.6 18.3h19.3l.2-.7c.2-11.7-4-21.6-12.7-29.7z"/><path d="m1478.5 283 40.2-53.3h-25.6l-32.2 46.2h-13.7v-98.2h-21.4v169.5h21.4v-54.4h13.9l38.2 54.4h25.2z"/><path d="m208.8 415h-83c-3.6 0-6.5 2.9-6.5 6.5s2.9 6.5 6.5 6.5h83c3.6 0 6.5-2.9 6.5-6.5s-2.9-6.5-6.5-6.5z"/><path d="m195.3 437.5h-56c-3.6 0-6.5 2.9-6.5 6.5s2.9 6.5 6.5 6.5h56c3.6 0 6.5-2.9 6.5-6.5s-2.9-6.5-6.5-6.5z"/><path d="m290.2 174.5c-11.4 0-20.7 9.3-20.7 20.7 0 2.9.6 5.7 1.7 8.2l-28.8 17.9c-2.6-2.7-6.3-4.4-10.4-4.4-8 0-14.5 6.5-14.5 14.5s6.5 14.5 14.5 14.5c1.3 0 2.5-.2 3.6-.5l5.9 22.6c-5.5 3.7-9.1 10-9.1 17.1 0 11.4 9.3 20.7 20.7 20.7s20.7-9.3 20.7-20.7-9.3-20.7-20.7-20.7c-2.5 0-4.8.5-7 1.2l-5.9-22.4c3.8-2.6 6.3-7 6.3-11.9 0-2.2-.5-4.2-1.3-6l28.5-17.7c3.3 4.3 8.2 7.2 13.8 8l-5.6 23c-4.2.3-7.5 3.8-7.5 8.1 0 4.5 3.6 8.1 8.1 8.1s8.1-3.6 8.1-8.1c0-3-1.6-5.5-3.9-7l5.9-24.2c10.2-1.2 18.2-9.9 18.2-20.5.1-11.3-9.2-20.5-20.6-20.5z"/><path d="m235.1 324.9c-1.1 0-2.2.1-3.2.4l-7.4-13.9c1.8-1.5 2.9-3.7 2.9-6.2 0-4.5-3.6-8.1-8.1-8.1s-8.1 3.6-8.1 8.1v.8l-15.6 5.5c-2.6-2.8-6.4-4.5-10.5-4.5-4.3 0-8.2 1.9-10.9 4.9l-12.9-1.9c-.6-3.9-4-6.9-8-6.9-4.5 0-8.1 3.6-8.1 8.1v.7l-22.5 7.7c-3.7-3.7-8.9-6-14.5-6-11.4 0-20.7 9.3-20.7 20.7s9.3 20.7 20.7 20.7c1 0 1.9-.1 2.9-.2l9.5 31.2c-2.2 1.5-3.7 4-3.7 6.8 0 4.5 3.6 8.1 8.1 8.1s8.1-3.6 8.1-8.1c0-4.4-3.5-7.9-7.8-8.1l-9.5-31.1c7.6-3.1 12.9-10.5 12.9-19.2 0-3.9-1.1-7.5-2.9-10.5l21.2-7.2c1.5 1.7 3.7 2.8 6.2 2.8 3.1 0 5.9-1.8 7.2-4.4l10.9 1.6c-.6 1.6-.9 3.2-.9 5 0 5.7 3.3 10.6 8.1 13l-9 36.6c-4.2.3-7.5 3.8-7.5 8.1 0 4.5 3.6 8.1 8.1 8.1s8.1-3.6 8.1-8.1c0-2.9-1.6-5.5-3.9-7l8.9-36.3c.5.1 1.1.1 1.6.1 8 0 14.5-6.5 14.5-14.5 0-2-.4-4-1.2-5.7l14.8-5.2c1.5 1.7 3.7 2.8 6.1 2.8h.6l7.4 14c-4 2.6-6.7 7.1-6.7 12.2 0 3.9 1.5 7.4 4 10l-11.9 8.8c-1.3-.8-2.8-1.3-4.4-1.3-4.5 0-8.1 3.6-8.1 8.1 0 4 2.9 7.4 6.8 8l1.5 12c-3 1.2-5.2 4.1-5.2 7.6 0 4.5 3.6 8.1 8.1 8.1s8.1-3.6 8.1-8.1c0-3.8-2.6-7-6.1-7.9l-1.6-12.4c2.7-1.3 4.6-4.1 4.6-7.3 0-1-.2-2-.6-2.9l13-9.6c1.9.9 4.1 1.5 6.3 1.5 8 0 14.5-6.5 14.5-14.5.3-8.5-6.2-15-14.2-15z"/><path d="m231.9 150.8 6.5 26c-1.9 1.1-3.3 3-3.7 5.2h-44.4c-1.5-6.4-7.3-11.2-14.1-11.2-8 0-14.5 6.5-14.5 14.5s6.5 14.5 14.5 14.5c3.2 0 6.2-1.1 8.7-2.9l13.2 8.9c-.3.9-.5 1.9-.5 2.9 0 4.5 3.6 8.1 8.1 8.1s8.1-3.6 8.1-8.1-3.6-8.1-8.1-8.1c-1.7 0-3.2.5-4.5 1.4l-12.9-8.6c1.2-1.9 2-4 2.3-6.3h44.6c1.3 2.9 4.1 4.9 7.5 4.9 4.5 0 8.1-3.6 8.1-8.1 0-4.3-3.3-7.8-7.5-8.1l-6.3-24.9c3.1-1.1 5.4-4.1 5.4-7.7 0-3-1.7-5.7-4.1-7.1l5.4-18.5c4.6 4.4 10.8 7.1 17.7 7.1 6 0 11.5-2 15.8-5.5l13.5 23.1c-1.5 1.5-2.4 3.5-2.4 5.7 0 4.5 3.6 8.1 8.1 8.1s8.1-3.6 8.1-8.1-3.6-8.1-8.1-8.1c-.5 0-.9 0-1.3.1l-14.2-24.4c3.8-4.5 6.2-10.3 6.2-16.7 0-14.2-11.5-25.7-25.7-25.7s-25.7 11.5-25.7 25.7c0 5.1 1.5 9.9 4.1 13.9l-6.4 22.1c-4.1.4-7.2 3.9-7.2 8.1-.1 3.7 2.3 6.8 5.7 7.8z"/><path d="m95.3 298.4c0-4.4-3.5-7.9-7.8-8.1l-7.1-20.6h.1c5.3 0 10.3-1.6 14.4-4.4l15.4 17.6c-.7 1.2-1.2 2.6-1.2 4.2 0 4.5 3.6 8.1 8.1 8.1s8.1-3.6 8.1-8.1-3.6-8.1-8.1-8.1c-1.2 0-2.2.2-3.2.7l-15.3-17.5c2.5-2.5 4.5-5.6 5.8-9h32.8c1.4 1 3.1 1.7 4.9 1.7 2.2 0 4.2-.9 5.7-2.3l14.1 6.1c-.3 1.2-.5 2.5-.5 3.9 0 8 6.5 14.5 14.5 14.5s14.5-6.5 14.5-14.5-6.5-14.5-14.5-14.5c-4.9 0-9.2 2.4-11.8 6.1l-13.9-6c.1-.5.1-.9.1-1.4 0-4.5-3.6-8.1-8.1-8.1-.9 0-1.7.1-2.5.4l-26-44.6c3-2.7 4.9-6.5 4.9-10.8 0-4.2-1.8-8-4.7-10.7l22-26.8c1.1.5 2.3.8 3.6.8 4.5 0 8.1-3.6 8.1-8.1 0-.2 0-.4 0-.6l28.9-4.7c.8 3.7 4 6.4 8 6.4 4.5 0 8.1-3.6 8.1-8.1 0-2.4-1-4.5-2.7-6l17.4-61.5h.8c4.5 0 8.1-3.6 8.1-8.1s-3.6-8.1-8.1-8.1-8.1 3.6-8.1 8.1c0 2.4 1 4.5 2.7 6l-17.4 61.5c-.3 0-.6 0-.9 0-3.3 0-6.1 1.9-7.4 4.7l-31.5 5.1c-1.5-1.7-3.7-2.8-6.1-2.8-.8 0-1.5.1-2.2.3l-31.3-45.6c1-1.4 1.6-3 1.6-4.8 0-.6-.1-1.1-.2-1.7l26.3-14.9c3.1 7.5 10.5 12.8 19.1 12.8 11.4 0 20.7-9.3 20.7-20.7s-9.3-20.7-20.7-20.7-20.7 9.3-20.7 20.7c0 1 .1 1.9.2 2.9l-27.3 15.5c-1.4-1.3-3.4-2.1-5.5-2.1-4.5 0-8.1 3.6-8.1 8.1 0 1.5.4 2.9 1.1 4l-20.8 22.9c-1.3-.2-2.7-.3-4.1-.3-14.2 0-25.7 11.5-25.7 25.7 0 8.8 4.4 16.6 11.2 21.2l-5.1 37c-3.6.9-6.3 4.1-6.3 7.9 0 4.5 3.6 8.1 8.1 8.1s8.1-3.6 8.1-8.1c0-3.4-2.1-6.3-5-7.5l4.8-34.9c3 1.2 6.3 1.9 9.8 1.9 14.2 0 25.7-11.5 25.7-25.7 0-10.8-6.7-20.1-16.2-23.9l19.1-21c1 .5 2.2.7 3.4.7.9 0 1.7-.1 2.5-.4l31.2 45.2c-1.1 1.4-1.8 3.2-1.8 5.1 0 1.4.3 2.7 1 3.8l-22.7 27.7c-1.7-.7-3.6-1.1-5.6-1.1-8 0-14.5 6.5-14.5 14.5s6.5 14.5 14.5 14.5c1.9 0 3.7-.4 5.4-1l26.2 44.9c-1 1.3-1.6 3-1.6 4.8 0 .5.1 1 .1 1.5h-28.4c.2-1.3.3-2.7.3-4.1 0-14.2-11.5-25.7-25.7-25.7s-25.6 11.5-25.6 25.7c0 12.2 8.6 22.5 20 25.1l7.8 22.6c-2.2 1.5-3.7 4-3.7 6.8 0 4.5 3.6 8.1 8.1 8.1 4.7-.1 8.3-3.7 8.3-8.2z"/></g></svg>